<svg width="32" height="32" viewBox="0 0 32 32" fill="none" xmlns="http://www.w3.org/2000/svg">
<rect x="0.5" y="0.5" width="31" height="31" rx="3.5" fill="url(#paint0_linear_7323_401624)"/>
<path fill-rule="evenodd" clip-rule="evenodd" d="M18.67 10H22.3C22.6866 10 23 10.3134 23 10.7C23 11.0866 22.6866 11.4 22.3 11.4H22V21.33C22 22.8007 20.8107 23.9945 19.34 24H12.66C11.1893 23.9945 9.99999 22.8007 10 21.33V11.4H9.7C9.3134 11.4 9 11.0866 9 10.7C9 10.3134 9.3134 10 9.7 10H13.3V9.7C13.3 8.76112 14.0611 8 15 8H17C17.9271 8.01636 18.6701 8.77271 18.67 9.7V10ZM15 9.40001C14.8438 9.4107 14.7242 9.54351 14.73 9.70001V10H17.3V9.70001C17.3028 9.61961 17.2721 9.54166 17.2152 9.48477C17.1584 9.42789 17.0804 9.39719 17 9.40001H15ZM19.34 22.6C20.0375 22.5945 20.6 22.0275 20.6 21.33V11.4H11.4V21.33C11.4 22.0275 11.9625 22.5945 12.66 22.6H19.34ZM14.17 13.0001C13.7834 13.0001 13.47 13.3135 13.47 13.7001V20.3001C13.5126 20.6571 13.8154 20.926 14.175 20.926C14.5346 20.926 14.8374 20.6571 14.88 20.3001V13.7001C14.8801 13.5127 14.8049 13.3331 14.6715 13.2015C14.538 13.07 14.3574 12.9974 14.17 13.0001ZM17.12 13.7V20.3C17.1626 20.6571 17.4654 20.9259 17.825 20.9259C18.1846 20.9259 18.4874 20.6571 18.53 20.3V13.7C18.4874 13.343 18.1846 13.0742 17.825 13.0742C17.4654 13.0742 17.1626 13.343 17.12 13.7Z" fill="#12344D"/>
<rect x="0.5" y="0.5" width="31" height="31" rx="3.5" stroke="#CFD7DF"/>
<defs>
<linearGradient id="paint0_linear_7323_401624" x1="0.91954" y1="1" x2="0.919532" y2="30.5" gradientUnits="userSpaceOnUse">
<stop stop-color="white"/>
<stop offset="1" stop-color="#F5F7F9"/>
</linearGradient>
</defs>
</svg>
